<?xml version="1.0" encoding="UTF-8" standalone="no"?>
<svg width="600" height="300" viewBox="0 0 600 300" xmlns="http://www.w3.org/2000/svg">
  <!-- Main components box -->
  <rect x="50" y="20" width="500" height="260" rx="10" ry="10" fill="#f0f0f0" stroke="#333" stroke-width="2"/>
  <text x="300" y="45" font-family="Arial" font-size="20" text-anchor="middle" font-weight="bold">PlacekeyRails Components</text>
  
  <!-- Component boxes -->
  <rect x="80" y="70" width="150" height="80" rx="5" ry="5" fill="#d1e7dd" stroke="#333" stroke-width="1"/>
  <text x="155" y="110" font-family="Arial" font-size="16" text-anchor="middle" font-weight="bold">Converter</text>
  
  <rect x="370" y="70" width="150" height="80" rx="5" ry="5" fill="#d1e7dd" stroke="#333" stroke-width="1"/>
  <text x="445" y="110" font-family="Arial" font-size="16" text-anchor="middle" font-weight="bold">Validator</text>
  
  <rect x="80" y="180" width="150" height="80" rx="5" ry="5" fill="#d1e7dd" stroke="#333" stroke-width="1"/>
  <text x="155" y="220" font-family="Arial" font-size="16" text-anchor="middle" font-weight="bold">Spatial</text>
  
  <rect x="370" y="180" width="150" height="80" rx="5" ry="5" fill="#d1e7dd" stroke="#333" stroke-width="1"/>
  <text x="445" y="220" font-family="Arial" font-size="16" text-anchor="middle" font-weight="bold">Client</text>
  
  <!-- H3 Adapter -->
  <rect x="240" y="120" width="120" height="60" rx="5" ry="5" fill="#cce5ff" stroke="#333" stroke-width="1"/>
  <text x="300" y="155" font-family="Arial" font-size="14" text-anchor="middle" font-weight="bold">H3Adapter</text>
  
  <!-- Connections -->
  <line x1="155" y1="150" x2="240" y2="150" stroke="#333" stroke-width="1.5"/>
  <line x1="360" y1="150" x2="445" y2="150" stroke="#333" stroke-width="1.5"/>
  <line x1="300" y1="180" x2="300" y2="220" stroke="#333" stroke-width="1.5"/>
  <line x1="240" y1="150" x2="155" y2="220" stroke="#333" stroke-width="1.5"/>
  <line x1="360" y1="150" x2="445" y2="220" stroke="#333" stroke-width="1.5"/>
  
  <!-- Component descriptions -->
  <text x="155" y="130" font-family="Arial" font-size="10" text-anchor="middle">Coordinate/H3 Conversions</text>
  <text x="445" y="130" font-family="Arial" font-size="10" text-anchor="middle">Format Validation</text>
  <text x="155" y="240" font-family="Arial" font-size="10" text-anchor="middle">Spatial Operations</text>
  <text x="445" y="240" font-family="Arial" font-size="10" text-anchor="middle">API Integration</text>
  <text x="300" y="175" font-family="Arial" font-size="10" text-anchor="middle">H3 Bridge</text>
  
  <!-- Legend -->
  <rect x="455" y="25" width="85" height="15" rx="2" ry="2" fill="#d1e7dd" stroke="#333" stroke-width="1"/>
  <text x="498" y="37" font-family="Arial" font-size="10" text-anchor="middle">Core Modules</text>
  
  <rect x="455" y="45" width="85" height="15" rx="2" ry="2" fill="#cce5ff" stroke="#333" stroke-width="1"/>
  <text x="498" y="57" font-family="Arial" font-size="10" text-anchor="middle">Utilities</text>
</svg>
